# xmcd
#
# Track frame offsets:
#	150
#	17978
#	33702
#	51514
#	69349
#	84984
#
# Disc length: 1312 seconds
#
# Revision: 1
# Processed by: cddbd v1.5.2PL0 Copyright (c) Steve Scherf et al.
# Submitted via: audiograbber 1.83.01
#
DISCID=4c051e06
DTITLE=Michelle Cormier - 102 Days
DYEAR=2013
DGENRE=Country
TTITLE0=102 Days
TTITLE1=Start of Forever
TTITLE2=Everything About You
TTITLE3=Pictures of You
TTITLE4=Never Going to Know
TTITLE5=Runaway Maybe
EXTD=
EXTT0=
EXTT1=
EXTT2=
EXTT3=
EXTT4=
EXTT5=
PLAYORDER=
